#!OML:ASF F:\VICON\USERDATA\INSTALL\Justin_Nancy\Justin_Nancy.ASF
:FULLY-SPECIFIED
:DEGREES
425
root -12.067 17.352 12.2531 145.075 -80.4428 -141.492
lowerback 5.16549 3.55653 4.19637
upperback -0.165727 5.0273 3.00671
thorax -2.97262 2.43234 0.379008
lowerneck -16.3195 -4.49949 -7.39061
upperneck 24.5244 -5.81932 4.3633
head 10.9706 -2.93809 1.9615
rclavicle 3.98066e-014 -1.70955e-014
rhumerus -25.4266 -5.20209 -82.7383
rradius 36.5399
rwrist 1.00852
rhand -15.5317 12.2692
rfingers 7.12502
rthumb 10.6519 -17.4408
lclavicle 3.98066e-014 -1.70955e-014
lhumerus -32.5781 12.744 83.8465
lradius 25.8305
lwrist -7.05286
lhand -13.7179 25.9144
lfingers 7.12502
lthumb 12.4011 55.5265
rfemur 8.88334 5.33406 33.2345
rtibia 10.6509
rfoot -12.6031 -3.10988
rtoes 14.4141
lfemur -31.9317 -5.5891 -8.97988
ltibia 25.2992
lfoot -12.8752 13.7572
ltoes 4.75815
426
root -12.2107 17.3338 12.2838 145.533 -80.2753 -141.91
lowerback 5.20274 3.61539 4.49551
upperback -0.231583 5.12693 2.84431
thorax -3.01872 2.47524 0.0364928
lowerneck -16.3509 -4.49844 -7.2357
upperneck 24.5709 -5.90785 4.52089
head 10.9993 -2.94566 1.97925
rclavicle -3.0911e-014 -2.8625e-014
rhumerus -25.3538 -5.54092 -82.8024
rradius 36.2861
rwrist 1.23404
rhand -15.3087 12.4485
rfingers 7.12502
rthumb 10.867 -17.2503
lclavicle -3.0911e-014 -2.8625e-014
lhumerus -32.7192 12.228 83.9203
lradius 25.9223
lwrist -6.63121
lhand -14.1457 25.9213
lfingers 7.12502
lthumb 11.9886 55.558
rfemur 9.22411 5.58232 33.1964
rtibia 10.9095
rfoot -12.5956 -3.31767
rtoes 12.3953
lfemur -31.9987 -4.58475 -9.45311
ltibia 25.1605
lfoot -12.8857 13.2143
ltoes 2.25188
427
root -12.3642 17.3214 12.2903 143.476 -80.0308 -139.782
lowerback 5.02025 3.59134 4.77106
upperback -0.236182 5.09752 2.98114
thorax -2.91082 2.45712 0.0404488
lowerneck -16.3531 -4.49372 -7.15765
upperneck 24.5461 -5.94667 4.60904
head 10.993 -2.94545 1.99235
rclavicle -2.83268e-015 -1.03368e-014
rhumerus -25.2293 -5.65753 -82.7553
rradius 36.0737
rwrist 1.34695
rhand -15.223 12.733
rfingers 7.12502
rthumb 10.9496 -16.9615
lclavicle -2.83268e-015 -1.03368e-014
lhumerus -32.8392 12.373 83.8799
lradius 25.9825
lwrist -6.6105
lhand -14.1712 25.9648
lfingers 7.12502
lthumb 11.964 55.6029
rfemur 9.54253 5.69799 33.6162
rtibia 11.2855
rfoot -12.6533 -3.23367
rtoes 12.8053
lfemur -31.969 -3.23786 -9.55912
ltibia 25.0834
lfoot -12.7154 11.9444
ltoes -0.449651
428
root -12.5201 17.3111 12.2843 141.92 -80.014 -138.095
lowerback 4.73323 3.55322 4.58393
upperback -0.284972 5.02108 3.18823
thorax -2.83732 2.4234 0.378114
lowerneck -16.2407 -4.51693 -6.94317
upperneck 24.4221 -5.9426 4.2577
head 10.9056 -2.96637 1.83136
rclavicle -3.58309e-014 -2.34566e-014
rhumerus -25.2571 -5.84767 -82.597
rradius 35.9154
rwrist 1.35074
rhand -15.0908 12.692
rfingers 7.12502
rthumb 11.0772 -16.9956
lclavicle -3.58309e-014 -2.34566e-014
lhumerus -33.0027 12.0319 84.1472
lradius 26.0571
lwrist -6.3237
lhand -13.8699 25.8856
lfingers 7.12502
lthumb 12.2545 55.5065
rfemur 9.72275 5.5908 33.8187
rtibia 11.833
rfoot -12.6889 -2.8638
rtoes 13.1212
lfemur -31.8926 -2.05947 -9.84195
ltibia 25.0467
lfoot -12.2201 10.3987
ltoes -0.654983
429
root -12.6749 17.316 12.309 143.649 -80.7717 -139.967
lowerback 4.75817 3.41676 3.91724
upperback -0.280912 4.80886 3.07116
thorax -2.89615 2.33044 0.636045
lowerneck -16.3071 -4.56344 -7.15244
upperneck 24.5526 -5.95874 4.2726
head 10.9765 -2.99176 1.86801
rclavicle 5.56597e-015 1.43125e-014
rhumerus -25.2755 -6.11999 -82.3599
rradius 35.7493
rwrist 1.48053
rhand -15.008 12.5728
rfingers 7.12502
rthumb 11.157 -17.1106
lclavicle 5.56597e-015 1.43125e-014
lhumerus -33.1326 11.6918 84.4717
lradius 26.0909
lwrist -5.96928
lhand -13.865 25.9448
lfingers 7.12502
lthumb 12.2593 55.5655
rfemur 10.0539 5.19502 32.8919
rtibia 12.418
rfoot -12.6368 -2.64642
rtoes 11.7229
lfemur -31.5745 -2.82406 -10.7984
ltibia 25.2278
lfoot -11.7321 10.4217
ltoes 1.47403
430
root -12.8301 17.3157 12.3214 143.118 -81.5757 -139.36
lowerback 4.55043 3.16852 3.60945
upperback -0.355223 4.45464 2.87119
thorax -2.8685 2.16139 0.633813
lowerneck -16.3575 -4.56339 -7.37376
upperneck 24.7648 -6.00685 4.61542
head 11.0881 -2.99618 2.02181
rclavicle -8.49804e-015 2.14687e-014
rhumerus -25.3305 -6.65292 -82.3812
rradius 35.5524
rwrist 1.86893
rhand -15.0275 12.55
rfingers 7.12502
rthumb 11.1382 -17.1344
lclavicle -8.49804e-015 2.14687e-014
lhumerus -33.3026 11.4287 84.4107
lradius 26.1429
lwrist -5.77026
lhand -14.0686 25.9861
lfingers 7.12502
lthumb 12.063 55.6184
rfemur 10.2066 5.15707 32.4818
rtibia 12.8747
rfoot -12.5365 -3.14029
rtoes 10.9555
lfemur -31.676 -2.5161 -11.8285
ltibia 25.7662
lfoot -10.9476 9.37025
ltoes 2.70674
431
root -12.9791 17.3016 12.3413 139.063 -80.9319 -135.076
lowerback 4.37284 3.23607 4.74052
upperback -0.436081 4.58967 2.93348
thorax -2.76833 2.20793 0.0752431
lowerneck -16.4474 -4.6199 -7.20388
upperneck 24.837 -6.14757 4.66312
head 11.1379 -3.03735 1.98812
rclavicle -6.36359e-014 -2.70347e-014
rhumerus -25.3614 -7.81682 -82.3819
rradius 35.3168
rwrist 2.7102
rhand -15.3458 12.6659
rfingers 7.12502
rthumb 10.8313 -17.0348
lclavicle -6.36359e-014 -2.70347e-014
lhumerus -33.289 11.4611 84.2647
lradius 26.0108
lwrist -6.25861
lhand -14.2384 26.0114
lfingers 7.12502
lthumb 11.8992 55.6532
rfemur 10.2452 5.68166 33.4265
rtibia 13.3964
rfoot -12.1657 -3.3111
rtoes 11.6424
lfemur -31.8524 -1.64686 -11.3483
ltibia 26.5297
lfoot -9.88459 8.63999
ltoes -1.39776
432
root -13.1315 17.2893 12.3589 134.599 -79.6998 -130.571
lowerback 4.38956 3.40681 6.18424
upperback -0.454808 4.88257 3.25856
thorax -2.69863 2.32471 -0.399989
lowerneck -16.2705 -4.70064 -6.79034
upperneck 24.5048 -6.24979 4.24801
head 10.9562 -3.09372 1.75575
rclavicle -3.55079e-014 -3.02153e-014
rhumerus -25.4931 -8.27488 -82.2801
rradius 35.1368
rwrist 3.14011
rhand -15.8859 12.4332
rfingers 7.12502
rthumb 10.3102 -17.2941
lclavicle -3.55079e-014 -3.02153e-014
lhumerus -33.2539 11.2812 84.3993
lradius 25.865
lwrist -6.42403
lhand -14.4929 26.4121
lfingers 7.12502
lthumb 11.6538 56.068
rfemur 10.195 6.13196 34.8586
rtibia 14.5638
rfoot -12.0099 -3.09666
rtoes 11.9121
lfemur -31.5881 -1.32209 -9.87736
ltibia 27.1645
lfoot -9.3261 7.95244
ltoes 0.147082
433
root -13.2824 17.295 12.3888 133.182 -79.4506 -129.419
lowerback 4.64651 3.33214 6.51456
upperback -0.363746 4.81416 3.43885
thorax -2.74084 2.28255 -0.404925
lowerneck -16.2582 -4.69915 -6.72439
upperneck 24.3306 -6.20506 4.07913
head 10.878 -3.08501 1.69081
rclavicle 1.87603e-014 -8.74653e-015
rhumerus -25.5602 -7.64807 -82.1537
rradius 35.0702
rwrist 2.74423
rhand -15.7148 12.099
rfingers 7.12502
rthumb 10.4753 -17.62
lclavicle 1.87603e-014 -8.74653e-015
lhumerus -33.2369 11.2129 84.595
lradius 25.7833
lwrist -6.18956
lhand -14.7509 26.4906
lfingers 7.12502
lthumb 11.405 56.1604
rfemur 10.0877 6.03892 35.0561
rtibia 16.2017
rfoot -11.9686 -2.79503
rtoes 11.7031
lfemur -31.0483 -2.11447 -9.37035
ltibia 27.645
lfoot -8.76406 7.62867
ltoes 7.19771
434
root -13.4204 17.3205 12.4768 141.531 -80.2228 -138.09
lowerback 5.22699 3.44387 5.56455
upperback -0.379977 4.96731 2.90883
thorax -3.10749 2.37044 -0.479027
lowerneck -16.2708 -4.73118 -6.72708
upperneck 24.4957 -6.27688 4.12078
head 10.9478 -3.11571 1.69497
rclavicle -7.92654e-015 -1.94809e-014
rhumerus -25.7521 -7.78016 -81.8649
rradius 34.9554
rwrist 2.54393
rhand -15.2997 12.1949
rfingers 7.12502
rthumb 10.8757 -17.5035
lclavicle -7.92654e-015 -1.94809e-014
lhumerus -33.3179 11.1129 84.7694
lradius 25.6407
lwrist -6.15489
lhand -14.789 25.9798
lfingers 7.12502
lthumb 11.3683 55.6516
rfemur 9.62568 5.84408 32.669
rtibia 18.1256
rfoot -11.732 -1.79262
rtoes 10.078
lfemur -30.4417 -3.26324 -11.3692
ltibia 27.7114
lfoot -6.97608 8.9109
ltoes 4.15074
435
root -13.5586 17.3311 12.5738 147.193 -80.2719 -144.029
lowerback 5.88198 3.55096 5.61443
upperback -0.456149 5.16591 2.4934
thorax -3.50275 2.45684 -0.995518
lowerneck -16.2164 -4.63442 -6.44212
upperneck 24.6218 -6.16526 3.86397
head 10.9574 -3.07332 1.57218
rclavicle -2.21148e-014 2.78299e-015
rhumerus -26.0512 -8.38152 -81.7076
rradius 34.8323
rwrist 2.64332
rhand -15.5627 12.161
rfingers 7.12502
rthumb 10.622 -17.5505
lclavicle -2.21148e-014 2.78299e-015
lhumerus -33.3868 11.0825 84.8634
lradius 25.3099
lwrist -6.54507
lhand -14.4733 25.5678
lfingers 7.12502
lthumb 11.6727 55.2226
rfemur 9.38629 5.64775 31.1106
rtibia 19.5536
rfoot -10.9649 -0.823013
rtoes 6.20935
lfemur -30.0135 -3.89352 -12.6332
ltibia 27.9929
lfoot -5.27752 9.82646
ltoes -1.49006
436
root -13.7266 17.3431 12.5988 149.396 -80.7643 -146.386
lowerback 5.81063 3.44506 5.14268
upperback -0.441515 4.98672 2.26523
thorax -3.47581 2.38023 -0.952621
lowerneck -16.0959 -4.54681 -6.29863
upperneck 24.5127 -6.08442 3.86941
head 10.8831 -3.0245 1.56487
rclavicle -3.57067e-014 -6.75868e-015
rhumerus -26.3096 -9.16862 -81.7033
rradius 34.604
rwrist 3.25293
rhand -16.0353 12.1209
rfingers 7.12502
rthumb 10.1661 -17.6135
lclavicle -3.57067e-014 -6.75868e-015
lhumerus -33.3888 11.1121 84.7707
lradius 25.0096
lwrist -7.06169
lhand -14.0348 25.2641
lfingers 7.12502
lthumb 12.0956 54.8944
rfemur 8.91982 5.55757 30.3161
rtibia 21.6652
rfoot -10.7217 -0.690236
rtoes 4.19517
lfemur -29.3563 -4.1201 -13.5533
ltibia 27.6916
lfoot -4.25256 8.9806
ltoes -2.56315
437
root -13.9376 17.3265 12.4948 134.235 -80.7194 -131.192
lowerback 4.78257 2.96953 5.56226
upperback -0.304845 4.29621 3.21749
thorax -2.83427 2.04401 -0.0868111
lowerneck -16.0397 -4.58179 -6.5648
upperneck 24.5229 -6.10637 4.01337
head 10.8921 -3.04361 1.65876
rclavicle -2.30839e-014 2.78299e-015
rhumerus -26.5274 -9.67709 -81.4802
rradius 34.3335
rwrist 3.7344
rhand -16.3649 12.2163
rfingers 7.12502
rthumb 9.84815 -17.5334
lclavicle -2.30839e-014 2.78299e-015
lhumerus -33.2578 11.3745 84.7508
lradius 24.5145
lwrist -7.79516
lhand -14.0189 25.4388
lfingers 7.12502
lthumb 12.1109 55.0683
rfemur 8.83644 5.09278 33.1843
rtibia 23.5535
rfoot -10.5968 -2.01154
rtoes 1.95537
lfemur -29.1206 -0.954466 -12.3068
ltibia 27.6679
lfoot -3.90728 3.11339
ltoes -2.28108
